<svg width="403" height="163" viewBox="0 0 403 163" fill="none" xmlns="http://www.w3.org/2000/svg">
<path d="M50.2798 16.7144C51.7883 14.0133 55.6635 12.2001 58.2764 13.8565C64.2545 17.6475 67.5964 32.6071 69.5938 39.1111L77.6257 64.9212C79.1138 69.881 82.174 79.7354 82.9066 80.7052C83.639 81.6739 84.1205 81.7171 84.5643 81.6228C84.8835 81.555 85.2057 81.4566 85.4226 81.2127C85.6412 80.9669 85.8994 80.5459 86.0343 79.8537C86.2965 78.5074 85.5861 71.3326 85.2312 67.6445C84.2738 57.7129 79.7948 24.8872 82.7092 17.6067C83.3937 15.8936 84.8579 13.6758 86.646 13.028C87.6637 12.6588 88.6581 12.8741 89.5766 13.4054C92.6414 15.175 94.3712 19.3394 95.3317 22.5573C96.7736 27.368 96.9783 32.9542 97.6101 37.9452L101.109 64.5642C101.561 68.1069 102.094 72.8272 102.781 77.3015C103.726 83.4645 102.704 94.1188 108.939 94.0373C111.382 94.005 112.338 91.0757 112.351 91.0357C115.377 83.6936 114.897 70.8062 123.257 66.4267C134.808 60.3765 133.83 76.1384 133.369 80.9643C132.378 91.1938 131.792 94.4704 129.087 103.834C123.936 121.676 112.485 137.559 101.39 144.297C90.2956 151.034 78.0035 151.529 66.9772 148.867C50.988 145.007 39.965 131.587 31.8788 118.109C27.3918 110.631 5.36964 64.4793 7.57404 57.4933C8.30659 55.1718 11.4814 54.9476 13.2369 56.6341C20.8381 63.9368 31.0476 92.1143 43.5635 98.5445C44.6547 99.1052 45.1322 99.6986 46.2181 99.1453C47.2881 98.5998 46.9117 97.0407 46.59 95.8834C45.7054 92.7003 43.4559 89.43 42.1635 86.5191C37.3873 75.7624 33.2306 64.8546 29.3067 53.7635C27.7394 49.3326 25.7421 44.7033 24.8702 40.0922C24.4551 37.8943 24.2903 35.4354 25.206 33.3347C25.7803 32.0174 26.9538 30.7439 28.3543 30.3023C38.9361 26.9653 54.497 78.4695 62.9008 87.7211C63.6884 88.5881 65.1668 89.2092 65.7691 88.2047C66.2564 87.3916 65.4886 84.3409 65.1466 82.4625C64.5509 79.2119 63.2266 76.0331 62.3128 72.8554C59.6003 63.4135 47.6121 24.9927 49.7289 18.0256C49.8765 17.54 50.0609 17.1064 50.2798 16.7144Z" fill="#B0FE76"/>
<path d="M50.2798 16.7144C51.7883 14.0133 55.6635 12.2001 58.2764 13.8565C64.2545 17.6475 67.5964 32.6071 69.5938 39.1111L77.6257 64.9212C79.1138 69.881 82.174 79.7354 82.9066 80.7052C83.639 81.6739 84.1205 81.7171 84.5643 81.6228C84.8835 81.555 85.2057 81.4566 85.4226 81.2127C85.6412 80.9669 85.8994 80.5459 86.0343 79.8537C86.2965 78.5074 85.5861 71.3326 85.2312 67.6445C84.2738 57.7129 79.7948 24.8872 82.7092 17.6067C83.3937 15.8936 84.8579 13.6758 86.646 13.028C87.6637 12.6588 88.6581 12.8741 89.5766 13.4054C92.6414 15.175 94.3712 19.3394 95.3317 22.5573C96.7736 27.368 96.9783 32.9542 97.6101 37.9452L101.109 64.5642C101.561 68.1069 102.094 72.8272 102.781 77.3015C103.726 83.4645 102.704 94.1188 108.939 94.0373C111.382 94.005 112.338 91.0757 112.351 91.0357C115.377 83.6936 114.897 70.8062 123.257 66.4267C134.808 60.3765 133.83 76.1384 133.369 80.9643C132.378 91.1938 131.792 94.4704 129.087 103.834C123.936 121.676 112.485 137.559 101.39 144.297C90.2956 151.034 78.0035 151.529 66.9772 148.867C50.988 145.007 39.965 131.587 31.8788 118.109C27.3918 110.631 5.36964 64.4793 7.57404 57.4933C8.30659 55.1718 11.4814 54.9476 13.2369 56.6341C20.8381 63.9368 31.0476 92.1143 43.5635 98.5445C44.6547 99.1052 45.1322 99.6986 46.2181 99.1453C47.2881 98.5998 46.9117 97.0407 46.59 95.8834C45.7054 92.7003 43.4559 89.43 42.1635 86.5191C37.3873 75.7624 33.2306 64.8546 29.3067 53.7635C27.7394 49.3326 25.7421 44.7033 24.8702 40.0922C24.4551 37.8943 24.2903 35.4354 25.206 33.3347C25.7803 32.0174 26.9538 30.7439 28.3543 30.3023C38.9361 26.9653 54.497 78.4695 62.9008 87.7211C63.6884 88.5881 65.1668 89.2092 65.7691 88.2047C66.2564 87.3916 65.4886 84.3409 65.1466 82.4625C64.5509 79.2119 63.2266 76.0331 62.3128 72.8554C59.6003 63.4135 47.6121 24.9927 49.7289 18.0256C49.8765 17.54 50.0609 17.1064 50.2798 16.7144Z" stroke="#B0FE76"/>
<path d="M73.3113 116.545C73.8839 116.548 74.3543 117.018 74.2562 117.582C74.0643 118.686 73.5761 119.725 72.835 120.583C71.8665 121.704 70.5297 122.443 69.0651 122.666C67.6005 122.889 66.1043 122.582 64.8459 121.8C63.5874 121.019 62.6493 119.813 62.2005 118.402C61.7516 116.99 61.8213 115.464 62.3972 114.099C62.9731 112.734 64.0173 111.619 65.3419 110.956C66.6664 110.292 68.1844 110.123 69.6225 110.479C70.723 110.752 71.7214 111.318 72.5159 112.108C72.9217 112.512 72.809 113.168 72.3434 113.501L70.7309 114.655C69.9134 115.239 70.3234 116.529 71.3286 116.534L73.3113 116.545Z" fill="#1E2D36"/>
<path d="M98.1567 111.506C98.7284 111.536 99.1763 112.027 99.0518 112.586C98.8109 113.668 98.2834 114.673 97.516 115.491C96.5106 116.562 95.1586 117.243 93.6993 117.413C92.24 117.583 90.7677 117.23 89.5433 116.419C88.3189 115.607 87.4213 114.388 87.0096 112.977C86.5979 111.567 86.6987 110.057 87.2941 108.714C87.8896 107.371 88.9411 106.282 90.2626 105.64C91.584 104.998 93.0901 104.844 94.5138 105.206C95.6006 105.483 96.5859 106.046 97.3713 106.829C97.7768 107.233 97.6637 107.888 97.1978 108.221L95.3927 109.511C94.5945 110.081 94.9615 111.338 95.9411 111.39L98.1567 111.506Z" fill="#1E2D36"/>
<path d="M89.5887 123.883C90.4288 123.705 91.2702 124.244 91.289 125.102C91.3014 125.668 91.2558 126.236 91.1521 126.795C90.9536 127.866 90.5462 128.888 89.953 129.801C89.3599 130.714 88.5926 131.502 87.6951 132.119C86.7975 132.736 85.7872 133.17 84.7219 133.396C83.6566 133.623 82.5572 133.637 81.4863 133.439C80.4154 133.24 79.3942 132.833 78.4808 132.239C77.5674 131.646 76.7798 130.879 76.1629 129.981C75.8405 129.512 75.5681 129.013 75.3491 128.49C75.0171 127.698 75.5665 126.864 76.4066 126.685L82.9977 125.284L89.5887 123.883Z" fill="#1E2D36"/>
<path d="M186.078 112.309H182.208C180.23 112.309 179.198 111.277 179.198 109.299V56.4086C179.198 54.3446 180.23 53.3986 182.208 53.3986H194.162C209.47 53.3986 219.188 60.1066 219.188 74.5546C219.188 88.6586 208.868 94.6786 193.99 96.3126L189.088 96.8286V109.299C189.088 111.277 188.056 112.309 186.078 112.309ZM194.506 63.6326H189.088V86.5086L194.334 85.9926C203.536 85.1326 209.384 81.4346 209.384 74.5546C209.384 67.1586 203.708 63.6326 194.506 63.6326ZM258.608 113.169H253.448C252.072 113.169 251.298 112.395 251.298 111.019V107.321C248.546 110.073 244.332 111.793 240.032 111.965H238.484C230.056 111.535 224.38 105.601 224.38 97.8606C224.38 90.5506 228.852 84.2726 240.204 84.2726C243.816 84.2726 247.858 85.0466 251.298 86.5086C251.298 86.0786 251.212 85.7346 251.212 85.3046C250.696 79.3706 246.998 76.2746 241.064 76.2746C237.796 76.2746 234.098 77.4786 230.744 79.5426C229.712 80.1446 228.938 79.7146 228.336 78.5106L227.648 77.3066L226.444 74.7266C226.186 74.2966 226.014 73.8666 225.842 73.4366C225.584 72.6626 225.756 71.8886 226.53 71.3726C230.314 68.5346 236.162 66.6426 242.44 66.6426C253.706 66.6426 260.758 73.5226 260.758 85.8206V110.245C260.758 110.847 260.672 111.277 260.586 111.707C260.414 112.653 259.726 113.169 258.608 113.169ZM241.064 102.935C245.88 102.935 250.524 100.527 251.126 97.3446C251.212 96.6566 251.298 96.0546 251.298 95.3666V94.5926C248.03 93.3026 244.246 92.6146 241.064 92.6146C236.248 92.6146 233.84 94.4206 233.84 97.5166C233.84 100.957 237.194 102.935 241.064 102.935ZM279.253 108.009C279.253 109.987 278.221 111.019 276.243 111.019H272.545C270.567 111.019 269.535 109.987 269.535 108.009V52.1085C269.535 50.0446 270.567 49.0986 272.545 49.0986H276.243C278.221 49.0986 279.253 50.0446 279.253 52.1085V108.009ZM324.889 109.299C324.889 111.277 323.943 112.309 321.879 112.309H318.439C316.461 112.309 315.429 111.277 315.429 109.299V88.7446C315.429 81.0046 312.505 77.3066 307.689 77.3066C301.411 77.3066 298.143 81.4346 298.143 90.8946V108.009C298.143 109.987 297.197 111.019 295.133 111.019H291.693C289.715 111.019 288.683 109.987 288.683 108.009V68.0186C288.683 65.9546 289.715 65.0086 291.693 65.0086H295.133C297.197 65.0086 298.143 65.9546 298.143 68.0186V74.6406C301.153 69.8246 305.797 67.5026 310.957 67.5026C316.633 67.5026 321.363 70.4266 323.513 76.4466C326.695 71.0286 331.855 68.4486 337.703 68.4486C345.701 68.4486 351.635 74.2106 351.635 86.2506V108.009C351.635 109.987 350.689 111.019 348.625 111.019H345.185C343.207 111.019 342.175 109.987 342.175 108.009V89.6906C342.175 81.9506 339.251 78.2526 334.435 78.2526C328.157 78.2526 324.889 82.3806 324.889 91.8406V109.299ZM378.55 129.079C372.53 129.079 366.08 127.445 362.382 124.779C361.264 124.005 361.35 123.145 361.866 122.027L363.672 117.555C364.274 116.007 364.876 115.405 365.994 116.007C368.832 117.555 374.078 119.189 378.378 119.189C383.882 119.189 387.924 117.297 387.924 109.471V103.451C384.57 108.095 379.324 110.675 374.25 110.675C365.994 110.675 359.888 105.515 359.888 93.7326V70.1686C359.888 68.1046 360.92 67.1586 362.898 67.1586H366.338C368.402 67.1586 369.348 68.1046 369.348 70.1686V90.2926C369.348 97.3446 372.444 100.785 377.518 100.785C383.366 100.785 387.924 96.3986 387.924 89.0026V71.4586C387.924 69.3946 388.956 68.4486 390.934 68.4486H394.374C396.438 68.4486 397.384 69.3946 397.384 71.4586V110.675C397.384 124.177 389.128 129.079 378.55 129.079Z" fill="#B0FE76"/>
</svg>
