<svg width="418" height="164" viewBox="0 0 418 164" fill="none" xmlns="http://www.w3.org/2000/svg">
<path d="M64.3563 26.6616C84.1465 13.8552 80.6394 50.9137 83.2899 60.4565C83.9175 53.727 84.7997 35.4555 90.2332 30.854C95.961 26.0025 104.145 31.6846 103.772 38.8452C104.615 55.618 100.007 73.8752 100.982 90.5005C102.815 83.5968 105.537 76.0191 112.133 72.2837C114.6 70.8871 117.355 70.3768 120.113 71.1596C122.075 71.7164 123.878 72.8958 124.926 74.6821C127.318 78.7629 125.453 85.2769 124.166 89.4702C119.026 106.187 110.339 126.457 94.0311 135.165C84.0893 140.474 71.5794 141.385 60.8407 138.025C49.9836 134.627 42.2539 126.805 37.1532 116.904C34.5314 111.814 32.5375 106.372 30.9881 100.868C28.7842 93.0372 22.1433 59.6216 24.4979 52.562C25.0459 50.9196 26.1112 49.3876 27.7215 48.6499C29.2275 47.9602 30.9109 47.9857 32.4452 48.5747C35.1117 49.599 36.8266 51.9275 37.8631 54.4917C40.5516 61.1424 42.0591 68.6795 44.2723 75.5542C43.5568 64.5087 39.9729 52.5357 40.3416 41.3139C40.5829 33.9912 48.325 28.6734 54.1053 34.9868C58.6871 40.0285 59.342 48.8919 61.0926 55.3305C61.7614 54.651 61.814 54.462 62.2557 53.5981C62.0488 48.7619 60.1764 29.3674 64.3563 26.6616ZM69.994 28.1216C68.3767 28.5655 67.1395 29.1947 66.2928 30.728C63.5861 35.6311 66.4612 66.4555 66.992 73.9927C67.1714 76.5295 67.6595 79.1325 67.5877 81.6733C67.5447 83.1411 67.3975 84.9638 66.5311 86.187L65.8739 86.3325C60.5827 81.6495 57.2128 35.6833 48.2489 36.5464C47.1245 36.6546 46.0381 37.4254 45.3954 38.3247C44.3704 39.7588 44.1005 41.6349 44.0614 43.355C43.98 46.9636 44.7432 50.7658 45.2137 54.3501C46.3922 63.322 47.7751 72.1937 49.6483 81.0503C50.2501 83.896 51.7533 87.8469 51.4188 90.7026L51.078 91.2251C50.1215 91.3071 49.5155 90.9215 48.7782 90.3208C39.1541 82.4738 36.3928 53.5736 30.5418 52.1264C29.5083 52.393 28.8349 52.6761 28.2665 53.6802C25.4905 58.5829 34.6783 96.8286 36.8582 103.172C40.7866 114.605 46.9342 126.464 58.3465 131.925C66.2164 135.691 75.0189 135.743 83.4471 134.291C97.3844 129.93 105.548 120.577 112.276 107.977C115.809 101.365 117.749 95.3517 120.131 87.8139C121.25 84.2569 124.506 72.5542 114.848 75.2593C107.857 77.2174 105.182 90.6314 101.731 95.6714C101.34 96.2829 94.2544 95.1503 93.1278 95.1645C88.2788 95.2254 84.0178 96.756 80.0008 99.4292C78.9464 100.129 77.6157 101.41 76.3748 101.415C74.8902 98.9242 79.7064 95.9279 81.5428 94.8071C86.2197 91.9534 91.2808 91.2649 96.6678 91.0141C96.3127 86.4034 97.1086 78.7849 97.5067 73.9585L99.1317 53.3716C99.4545 49.5155 100.193 45.2801 99.8778 41.4302C99.6698 38.8555 99.0344 35.446 97.0116 33.6245C96.4055 33.0779 95.6918 32.7566 94.867 32.8716C93.4181 33.0729 91.9617 34.5075 91.1727 35.687C87.8158 40.6983 85.9361 66.1116 85.0682 73.7368C84.7455 76.5681 84.7533 80.4389 83.7206 83.0503C83.4696 83.6864 83.2539 83.8154 82.702 84.1509C81.5401 83.8564 82.0235 84.1501 81.2313 83.1919C80.3418 79.4088 80.1084 74.4409 79.7821 70.4712L77.867 49.769C77.4044 44.5564 77.2819 32.7666 73.3905 28.9585C72.852 28.432 70.8438 28.1778 69.994 28.1216Z" fill="#B0FE76"/>
<ellipse cx="61.0146" cy="114.569" rx="2.9381" ry="4.40266" fill="#B0FE76"/>
<ellipse cx="85.986" cy="112.196" rx="2.9381" ry="4.40266" fill="#B0FE76"/>
<path d="M59.763 98.3323C62.7885 97.7991 65.9189 98.9236 67.9274 100.85C68.1537 101.062 68.3666 101.281 68.5781 101.513C68.7063 101.662 68.8087 101.838 68.8461 102.032C68.8835 102.226 68.8542 102.42 68.7583 102.581C68.6624 102.742 68.505 102.861 68.3164 102.92C68.1277 102.98 67.9239 102.973 67.7324 102.931C67.4521 102.871 67.1837 102.822 66.9165 102.775C64.4872 102.344 62.4417 102.35 60.4863 102.675C58.5346 103.006 56.4934 103.651 54.39 104.774C54.1617 104.896 53.9267 105.035 53.7043 105.171C53.5413 105.28 53.3538 105.361 53.1564 105.374C52.959 105.387 52.7694 105.334 52.6213 105.219C52.4732 105.104 52.3747 104.934 52.3387 104.739C52.3027 104.545 52.3338 104.344 52.399 104.159C52.5118 103.864 52.6541 103.566 52.8018 103.288C54.1617 100.765 56.741 98.8319 59.763 98.3323Z" fill="#B0FE76"/>
<path d="M69.9944 28.1211C70.8444 28.1773 72.8529 28.4321 73.3909 28.9588C77.2823 32.7669 77.4042 44.5562 77.8669 49.7688L79.7821 70.471C80.1085 74.4408 80.3416 79.4083 81.2311 83.1914C82.0237 84.1502 81.5395 83.8567 82.7015 84.1513C83.2539 83.8155 83.4691 83.6869 83.7201 83.0506C84.7531 80.4391 84.7459 76.5679 85.0687 73.7364C85.9366 66.1111 87.816 40.6978 91.173 35.6869C91.962 34.5075 93.4182 33.0733 94.8671 32.8719C95.692 32.7569 96.4057 33.0779 97.0119 33.6247C99.0347 35.4462 99.6695 38.8556 99.8775 41.4302C100.193 45.2803 99.4543 49.5158 99.1315 53.372L97.5068 73.9585C97.1087 78.7849 96.3125 86.4034 96.6676 91.0141C91.2806 91.2649 86.2199 91.9535 81.5431 94.8072C79.7068 95.9279 74.89 98.9243 76.3749 101.415C77.6158 101.41 78.9465 100.128 80.0009 99.4287C84.0178 96.7556 88.2786 95.2254 93.1277 95.1644C94.2538 95.1501 101.341 96.2834 101.732 95.6718C105.182 90.6318 107.858 77.2174 114.848 75.2594C124.506 72.5544 121.25 84.2566 120.131 87.8136C117.749 95.3515 115.809 101.365 112.276 107.977C105.548 120.577 97.3849 129.93 83.4476 134.292C75.0192 135.743 66.2163 135.692 58.3464 131.926C46.934 126.464 40.7866 114.605 36.8583 103.172C34.6784 96.8283 25.4904 58.5832 28.2664 53.6805C28.8348 52.6762 29.508 52.3932 30.5417 52.1266C36.3928 53.5734 39.1537 82.4738 48.7778 90.3208C49.5152 90.9217 50.121 91.3072 51.0775 91.2251L51.4186 90.7028C51.7532 87.8469 50.2501 83.8958 49.6483 81.05C47.775 72.1933 46.392 63.3219 45.2135 54.3498C44.7429 50.7655 43.9801 46.9638 44.0615 43.3552C44.1006 41.6351 44.3703 39.7588 45.3953 38.3246C46.0381 37.4253 47.1241 36.6543 48.2484 36.5461C57.2127 35.6815 60.5822 81.649 65.8735 86.3321L66.5312 86.1874C67.3978 84.9642 67.5448 83.1412 67.5878 81.6734C67.6596 79.1324 67.1718 76.5292 66.9925 73.9922C66.4616 66.455 63.586 35.631 66.2927 30.7279C67.1395 29.1945 68.3769 28.565 69.9944 28.1211Z" fill="#B0FE76" fill-opacity="0.1"/>
<path d="M70.2188 125.299C70.1905 124.981 70.4858 124.731 70.7949 124.811L72.4274 125.235C74.1196 125.675 75.9105 125.53 77.5099 124.825L79.2772 124.045C79.5671 123.917 79.8969 124.112 79.925 124.428C80.1515 126.973 78.2713 129.22 75.7254 129.446L75.2282 129.491C72.6876 129.716 70.4449 127.84 70.2188 125.299Z" fill="#B0FE76"/>
<path d="M176.98 113.29H173.11C171.132 113.29 170.1 112.258 170.1 110.28V57.39C170.1 55.326 171.132 54.38 173.11 54.38H185.064C200.372 54.38 210.09 61.088 210.09 75.536C210.09 89.64 199.77 95.66 184.892 97.294L179.99 97.81V110.28C179.99 112.258 178.958 113.29 176.98 113.29ZM185.408 64.614H179.99V87.49L185.236 86.974C194.438 86.114 200.286 82.416 200.286 75.536C200.286 68.14 194.61 64.614 185.408 64.614ZM249.511 114.15H244.351C242.975 114.15 242.201 113.376 242.201 112V108.302C239.449 111.054 235.235 112.774 230.935 112.946H229.387C220.959 112.516 215.283 106.582 215.283 98.842C215.283 91.532 219.755 85.254 231.107 85.254C234.719 85.254 238.761 86.028 242.201 87.49C242.201 87.06 242.115 86.716 242.115 86.286C241.599 80.352 237.901 77.256 231.967 77.256C228.699 77.256 225.001 78.46 221.647 80.524C220.615 81.126 219.841 80.696 219.239 79.492L218.551 78.288L217.347 75.708C217.089 75.278 216.917 74.848 216.745 74.418C216.487 73.644 216.659 72.87 217.433 72.354C221.217 69.516 227.065 67.624 233.343 67.624C244.609 67.624 251.661 74.504 251.661 86.802V111.226C251.661 111.828 251.575 112.258 251.489 112.688C251.317 113.634 250.629 114.15 249.511 114.15ZM231.967 103.916C236.783 103.916 241.427 101.508 242.029 98.326C242.115 97.638 242.201 97.036 242.201 96.348V95.574C238.933 94.284 235.149 93.596 231.967 93.596C227.151 93.596 224.743 95.402 224.743 98.498C224.743 101.938 228.097 103.916 231.967 103.916ZM270.155 108.99C270.155 110.968 269.123 112 267.145 112H263.447C261.469 112 260.437 110.968 260.437 108.99V53.09C260.437 51.026 261.469 50.08 263.447 50.08H267.145C269.123 50.08 270.155 51.026 270.155 53.09V108.99ZM315.792 110.28C315.792 112.258 314.846 113.29 312.782 113.29H309.342C307.364 113.29 306.332 112.258 306.332 110.28V89.726C306.332 81.986 303.408 78.288 298.592 78.288C292.314 78.288 289.046 82.416 289.046 91.876V108.99C289.046 110.968 288.1 112 286.036 112H282.596C280.618 112 279.586 110.968 279.586 108.99V69C279.586 66.936 280.618 65.99 282.596 65.99H286.036C288.1 65.99 289.046 66.936 289.046 69V75.622C292.056 70.806 296.7 68.484 301.86 68.484C307.536 68.484 312.266 71.408 314.416 77.428C317.598 72.01 322.758 69.43 328.606 69.43C336.604 69.43 342.538 75.192 342.538 87.232V108.99C342.538 110.968 341.592 112 339.528 112H336.088C334.11 112 333.078 110.968 333.078 108.99V90.672C333.078 82.932 330.154 79.234 325.338 79.234C319.06 79.234 315.792 83.362 315.792 92.822V110.28ZM369.452 130.06C363.432 130.06 356.982 128.426 353.284 125.76C352.166 124.986 352.252 124.126 352.768 123.008L354.574 118.536C355.176 116.988 355.778 116.386 356.896 116.988C359.734 118.536 364.98 120.17 369.28 120.17C374.784 120.17 378.826 118.278 378.826 110.452V104.432C375.472 109.076 370.226 111.656 365.152 111.656C356.896 111.656 350.79 106.496 350.79 94.714V71.15C350.79 69.086 351.822 68.14 353.8 68.14H357.24C359.304 68.14 360.25 69.086 360.25 71.15V91.274C360.25 98.326 363.346 101.766 368.42 101.766C374.268 101.766 378.826 97.38 378.826 89.984V72.44C378.826 70.376 379.858 69.43 381.836 69.43H385.276C387.34 69.43 388.286 70.376 388.286 72.44V111.656C388.286 125.158 380.03 130.06 369.452 130.06Z" fill="#B0FE76"/>
</svg>
